<?xml version="1.0" encoding="UTF-8" standalone="yes"?><svg xmlns="http://www.w3.org/2000/svg" xmlns:xlink="http://www.w3.org/1999/xlink" height="492px" style="width:708px;height:492px;" version="1.1" viewBox="0 0 708 492" width="708px"><defs/><g><ellipse cx="16" cy="53.5" fill="#000000" rx="10" ry="10" style="stroke: none; stroke-width: 1.0;"/><rect fill="#888888" height="67.1094" rx="12.5" ry="12.5" style="stroke: #FFFFFF; stroke-width: 1.5;" width="136" x="46" y="20"/><text fill="#FFFFFF" font-family="Consolas" font-size="20" lengthAdjust="spacingAndGlyphs" textLength="116" x="56" y="49.3359">Deployment</text><text fill="#FFFFFF" font-family="Consolas" font-size="20" lengthAdjust="spacingAndGlyphs" textLength="44" x="92" y="72.8906">Start</text><rect fill="#BB3322" height="90.6641" rx="12.5" ry="12.5" style="stroke: #FFFFFF; stroke-width: 1.5;" width="112" x="202" y="8"/><text fill="#FFFFFF" font-family="Consolas" font-size="20" lengthAdjust="spacingAndGlyphs" textLength="61" x="227.5" y="37.3359">Before</text><text fill="#FFFFFF" font-family="Consolas" font-size="20" lengthAdjust="spacingAndGlyphs" textLength="46" x="235" y="60.8906">Bean</text><text fill="#FFFFFF" font-family="Consolas" font-size="20" lengthAdjust="spacingAndGlyphs" textLength="92" x="212" y="84.4453">Discovery</text><rect fill="#888888" height="67.1094" rx="12.5" ry="12.5" style="stroke: #FFFFFF; stroke-width: 1.5;" width="91" x="334.5" y="20"/><text fill="#FFFFFF" font-family="Consolas" font-size="20" lengthAdjust="spacingAndGlyphs" textLength="44" x="358" y="49.3359">Scan</text><text fill="#FFFFFF" font-family="Consolas" font-size="20" lengthAdjust="spacingAndGlyphs" textLength="71" x="344.5" y="72.8906">Archive</text><rect fill="#337788" height="90.6641" rx="12.5" ry="12.5" style="stroke: #FFFFFF; stroke-width: 1.5;" width="119" x="445.5" y="8"/><text fill="#FFFFFF" font-family="Consolas" font-size="20" lengthAdjust="spacingAndGlyphs" textLength="72" x="469" y="37.3359">Process</text><text fill="#FFFFFF" font-family="Consolas" font-size="20" lengthAdjust="spacingAndGlyphs" textLength="99" x="455.5" y="60.8906">Annotated</text><text fill="#FFFFFF" font-family="Consolas" font-size="20" lengthAdjust="spacingAndGlyphs" textLength="47" x="481.5" y="84.4453">Type</text><rect fill="#BB3322" height="90.6641" rx="12.5" ry="12.5" style="stroke: #FFFFFF; stroke-width: 1.5;" width="112" x="585" y="8"/><text fill="#FFFFFF" font-family="Consolas" font-size="20" lengthAdjust="spacingAndGlyphs" textLength="47" x="617.5" y="37.3359">After</text><text fill="#FFFFFF" font-family="Consolas" font-size="20" lengthAdjust="spacingAndGlyphs" textLength="47" x="617.5" y="60.8906">Type</text><text fill="#FFFFFF" font-family="Consolas" font-size="20" lengthAdjust="spacingAndGlyphs" textLength="92" x="595" y="84.4453">Discovery</text><rect fill="#888888" height="90.6641" rx="12.5" ry="12.5" style="stroke: #FFFFFF; stroke-width: 1.5;" width="109" x="586.5" y="139"/><text fill="#FFFFFF" font-family="Consolas" font-size="20" lengthAdjust="spacingAndGlyphs" textLength="46" x="618" y="168.3359">Bean</text><text fill="#FFFFFF" font-family="Consolas" font-size="20" lengthAdjust="spacingAndGlyphs" textLength="89" x="596.5" y="191.8906">Eligibility</text><text fill="#FFFFFF" font-family="Consolas" font-size="20" lengthAdjust="spacingAndGlyphs" textLength="59" x="611.5" y="215.4453">Check</text><rect fill="#337788" height="90.6641" rx="12.5" ry="12.5" style="stroke: #FFFFFF; stroke-width: 1.5;" width="102" x="464" y="139"/><text fill="#FFFFFF" font-family="Consolas" font-size="20" lengthAdjust="spacingAndGlyphs" textLength="72" x="479" y="168.3359">Process</text><text fill="#FFFFFF" font-family="Consolas" font-size="20" lengthAdjust="spacingAndGlyphs" textLength="82" x="474" y="191.8906">Injection</text><text fill="#FFFFFF" font-family="Consolas" font-size="20" lengthAdjust="spacingAndGlyphs" textLength="48" x="491" y="215.4453">Point</text><rect fill="#337788" height="90.6641" rx="12.5" ry="12.5" style="stroke: #FFFFFF; stroke-width: 1.5;" width="102" x="342" y="139"/><text fill="#FFFFFF" font-family="Consolas" font-size="20" lengthAdjust="spacingAndGlyphs" textLength="72" x="357" y="168.3359">Process</text><text fill="#FFFFFF" font-family="Consolas" font-size="20" lengthAdjust="spacingAndGlyphs" textLength="82" x="352" y="191.8906">Injection</text><text fill="#FFFFFF" font-family="Consolas" font-size="20" lengthAdjust="spacingAndGlyphs" textLength="62" x="362" y="215.4453">Target</text><rect fill="#337788" height="90.6641" rx="12.5" ry="12.5" style="stroke: #FFFFFF; stroke-width: 1.5;" width="115" x="206.5" y="139"/><text fill="#FFFFFF" font-family="Consolas" font-size="20" lengthAdjust="spacingAndGlyphs" textLength="72" x="228" y="168.3359">Process</text><text fill="#FFFFFF" font-family="Consolas" font-size="20" lengthAdjust="spacingAndGlyphs" textLength="46" x="241" y="191.8906">Bean</text><text fill="#FFFFFF" font-family="Consolas" font-size="20" lengthAdjust="spacingAndGlyphs" textLength="95" x="216.5" y="215.4453">Attributes</text><rect fill="#337788" height="67.1094" rx="12.5" ry="12.5" style="stroke: #FFFFFF; stroke-width: 1.5;" width="92" x="218" y="282"/><text fill="#FFFFFF" font-family="Consolas" font-size="20" lengthAdjust="spacingAndGlyphs" textLength="72" x="228" y="311.3359">Process</text><text fill="#FFFFFF" font-family="Consolas" font-size="20" lengthAdjust="spacingAndGlyphs" textLength="46" x="241" y="334.8906">Bean</text><rect fill="#337788" height="67.1094" rx="12.5" ry="12.5" style="stroke: #FFFFFF; stroke-width: 1.5;" width="105" x="330.5" y="282"/><text fill="#FFFFFF" font-family="Consolas" font-size="20" lengthAdjust="spacingAndGlyphs" textLength="72" x="347" y="311.3359">Process</text><text fill="#FFFFFF" font-family="Consolas" font-size="20" lengthAdjust="spacingAndGlyphs" textLength="85" x="340.5" y="334.8906">Producer</text><rect fill="#337788" height="90.6641" rx="12.5" ry="12.5" style="stroke: #FFFFFF; stroke-width: 1.5;" width="107" x="455.5" y="270"/><text fill="#FFFFFF" font-family="Consolas" font-size="20" lengthAdjust="spacingAndGlyphs" textLength="72" x="473" y="299.3359">Process</text><text fill="#FFFFFF" font-family="Consolas" font-size="20" lengthAdjust="spacingAndGlyphs" textLength="87" x="465.5" y="322.8906">Observer</text><text fill="#FFFFFF" font-family="Consolas" font-size="20" lengthAdjust="spacingAndGlyphs" textLength="72" x="473" y="346.4453">Method</text><rect fill="#BB3322" height="90.6641" rx="12.5" ry="12.5" style="stroke: #FFFFFF; stroke-width: 1.5;" width="112" x="583" y="270"/><text fill="#FFFFFF" font-family="Consolas" font-size="20" lengthAdjust="spacingAndGlyphs" textLength="47" x="615.5" y="299.3359">After</text><text fill="#FFFFFF" font-family="Consolas" font-size="20" lengthAdjust="spacingAndGlyphs" textLength="46" x="616" y="322.8906">Bean</text><text fill="#FFFFFF" font-family="Consolas" font-size="20" lengthAdjust="spacingAndGlyphs" textLength="92" x="593" y="346.4453">Discovery</text><rect fill="#BB3322" height="90.6641" rx="12.5" ry="12.5" style="stroke: #FFFFFF; stroke-width: 1.5;" width="136" x="571" y="401"/><text fill="#FFFFFF" font-family="Consolas" font-size="20" lengthAdjust="spacingAndGlyphs" textLength="47" x="615.5" y="430.3359">After</text><text fill="#FFFFFF" font-family="Consolas" font-size="20" lengthAdjust="spacingAndGlyphs" textLength="116" x="581" y="453.8906">Deployment</text><text fill="#FFFFFF" font-family="Consolas" font-size="20" lengthAdjust="spacingAndGlyphs" textLength="97" x="590.5" y="477.4453">Validation</text><rect fill="#888888" height="67.1094" rx="12.5" ry="12.5" style="stroke: #FFFFFF; stroke-width: 1.5;" width="130" x="421" y="413"/><text fill="#FFFFFF" font-family="Consolas" font-size="20" lengthAdjust="spacingAndGlyphs" textLength="110" x="431" y="442.3359">Application</text><text fill="#FFFFFF" font-family="Consolas" font-size="20" lengthAdjust="spacingAndGlyphs" textLength="79" x="446.5" y="465.8906">Running</text><rect fill="#BB3322" height="67.1094" rx="12.5" ry="12.5" style="stroke: #FFFFFF; stroke-width: 1.5;" width="114" x="287" y="413"/><text fill="#FFFFFF" font-family="Consolas" font-size="20" lengthAdjust="spacingAndGlyphs" textLength="61" x="313.5" y="442.3359">Before</text><text fill="#FFFFFF" font-family="Consolas" font-size="20" lengthAdjust="spacingAndGlyphs" textLength="94" x="297" y="465.8906">Shutdown</text><rect fill="#888888" height="67.1094" rx="12.5" ry="12.5" style="stroke: #FFFFFF; stroke-width: 1.5;" width="130" x="137" y="413"/><text fill="#FFFFFF" font-family="Consolas" font-size="20" lengthAdjust="spacingAndGlyphs" textLength="91" x="156.5" y="442.3359">Undeploy</text><text fill="#FFFFFF" font-family="Consolas" font-size="20" lengthAdjust="spacingAndGlyphs" textLength="110" x="147" y="465.8906">Application</text><ellipse cx="107" cy="446.5" fill="none" rx="10" ry="10" style="stroke: #000000; stroke-width: 1.0;"/><ellipse cx="107.5" cy="447" fill="#000000" rx="6" ry="6" style="stroke: none; stroke-width: 1.0;"/><path d="M26.3359,53.5 C31.114,53.5 35.8921,53.5 40.6702,53.5 " fill="none" style="stroke: #888888; stroke-width: 1.0;"/><polygon fill="#888888" points="45.8549,53.5,36.8549,49.5,40.8549,53.5,36.8549,57.5,45.8549,53.5" style="stroke: #888888; stroke-width: 1.0;"/><path d="M182.062,53.5 C186.928,53.5 191.793,53.5 196.658,53.5 " fill="none" style="stroke: #888888; stroke-width: 1.0;"/><polygon fill="#888888" points="201.937,53.5,192.937,49.5,196.937,53.5,192.937,57.5,201.937,53.5" style="stroke: #888888; stroke-width: 1.0;"/><path d="M314.234,53.5 C319.244,53.5 324.253,53.5 329.263,53.5 " fill="none" style="stroke: #888888; stroke-width: 1.0;"/><polygon fill="#888888" points="334.272,53.5,325.272,49.5,329.272,53.5,325.272,57.5,334.272,53.5" style="stroke: #888888; stroke-width: 1.0;"/><path d="M425.898,53.5 C430.664,53.5 435.429,53.5 440.194,53.5 " fill="none" style="stroke: #888888; stroke-width: 1.0;"/><polygon fill="#888888" points="445.365,53.5,436.365,49.5,440.365,53.5,436.365,57.5,445.365,53.5" style="stroke: #888888; stroke-width: 1.0;"/><path d="M564.766,53.5 C569.65,53.5 574.534,53.5 579.418,53.5 " fill="none" style="stroke: #888888; stroke-width: 1.0;"/><polygon fill="#888888" points="584.718,53.5,575.718,49.5,579.718,53.5,575.718,57.5,584.718,53.5" style="stroke: #888888; stroke-width: 1.0;"/><path d="M641,99.256 C641,110.362 641,122.333 641,133.666 " fill="none" style="stroke: #888888; stroke-width: 1.0;"/><polygon fill="#888888" points="641,138.823,645,129.823,641,133.823,637,129.823,641,138.823" style="stroke: #888888; stroke-width: 1.0;"/><path d="M571.229,184.5 C576.27,184.5 581.311,184.5 586.352,184.5 " fill="none" style="stroke: #888888; stroke-width: 1.0;"/><polygon fill="#888888" points="566.188,184.5,575.188,188.5,571.188,184.5,575.188,180.5,566.188,184.5" style="stroke: #888888; stroke-width: 1.0;"/><path d="M449.592,184.5 C454.313,184.5 459.034,184.5 463.755,184.5 " fill="none" style="stroke: #888888; stroke-width: 1.0;"/><polygon fill="#888888" points="444.469,184.5,453.469,188.5,449.469,184.5,453.469,180.5,444.469,184.5" style="stroke: #888888; stroke-width: 1.0;"/><path d="M326.711,184.5 C331.724,184.5 336.738,184.5 341.751,184.5 " fill="none" style="stroke: #888888; stroke-width: 1.0;"/><polygon fill="#888888" points="321.697,184.5,330.697,188.5,326.697,184.5,330.697,180.5,321.697,184.5" style="stroke: #888888; stroke-width: 1.0;"/><path d="M264,230.256 C264,245.292 264,261.912 264,276.39 " fill="none" style="stroke: #888888; stroke-width: 1.0;"/><polygon fill="#888888" points="264,281.619,268,272.619,264,276.619,260,272.619,264,281.619" style="stroke: #888888; stroke-width: 1.0;"/><path d="M310.02,315.5 C315.08,315.5 320.14,315.5 325.2,315.5 " fill="none" style="stroke: #888888; stroke-width: 1.0;"/><polygon fill="#888888" points="330.26,315.5,321.26,311.5,325.26,315.5,321.26,319.5,330.26,315.5" style="stroke: #888888; stroke-width: 1.0;"/><path d="M435.664,315.5 C440.503,315.5 445.341,315.5 450.18,315.5 " fill="none" style="stroke: #888888; stroke-width: 1.0;"/><polygon fill="#888888" points="455.43,315.5,446.43,311.5,450.43,315.5,446.43,319.5,455.43,315.5" style="stroke: #888888; stroke-width: 1.0;"/><path d="M562.574,315.5 C567.649,315.5 572.725,315.5 577.8,315.5 " fill="none" style="stroke: #888888; stroke-width: 1.0;"/><polygon fill="#888888" points="582.875,315.5,573.875,311.5,577.875,315.5,573.875,319.5,582.875,315.5" style="stroke: #888888; stroke-width: 1.0;"/><path d="M639,361.256 C639,372.362 639,384.333 639,395.6664 " fill="none" style="stroke: #888888; stroke-width: 1.0;"/><polygon fill="#888888" points="639,400.8232,643,391.8232,639,395.8232,635,391.8232,639,400.8232" style="stroke: #888888; stroke-width: 1.0;"/><path d="M556.341,446.5 C561.129,446.5 565.918,446.5 570.706,446.5 " fill="none" style="stroke: #888888; stroke-width: 1.0;"/><polygon fill="#888888" points="551.145,446.5,560.145,450.5,556.145,446.5,560.145,442.5,551.145,446.5" style="stroke: #888888; stroke-width: 1.0;"/><path d="M406.328,446.5 C411.116,446.5 415.904,446.5 420.692,446.5 " fill="none" style="stroke: #888888; stroke-width: 1.0;"/><polygon fill="#888888" points="401.133,446.5,410.133,450.5,406.133,446.5,410.133,442.5,401.133,446.5" style="stroke: #888888; stroke-width: 1.0;"/><path d="M272.437,446.5 C277.285,446.5 282.134,446.5 286.982,446.5 " fill="none" style="stroke: #888888; stroke-width: 1.0;"/><polygon fill="#888888" points="267.176,446.5,276.176,450.5,272.176,446.5,276.176,442.5,267.176,446.5" style="stroke: #888888; stroke-width: 1.0;"/><path d="M122.31,446.5 C127.186,446.5 132.061,446.5 136.937,446.5 " fill="none" style="stroke: #888888; stroke-width: 1.0;"/><polygon fill="#888888" points="117.02,446.5,126.02,450.5,122.02,446.5,126.02,442.5,117.02,446.5" style="stroke: #888888; stroke-width: 1.0;"/></g></svg>