<?xml version="1.0" encoding="UTF-8" standalone="yes"?><svg xmlns="http://www.w3.org/2000/svg" xmlns:xlink="http://www.w3.org/1999/xlink" height="112px" style="width:530px;height:112px;" version="1.1" viewBox="0 0 530 112" width="530px"><defs/><g><ellipse cx="76.5" cy="18" fill="#FFFFFF" rx="10" ry="10" style="stroke: none; stroke-width: 1.0;"/><rect fill="#888888" height="43.5547" rx="12.5" ry="12.5" style="stroke: #FFFFFF; stroke-width: 1.5;" width="141" x="6" y="68"/><text fill="#FFFFFF" font-family="Consolas" font-size="20" lengthAdjust="spacingAndGlyphs" textLength="121" x="16" y="97.3359">Internal Step</text><rect fill="#BB3322" height="43.5547" rx="12.5" ry="12.5" style="stroke: #FFFFFF; stroke-width: 1.5;" width="150" x="167.5" y="68"/><text fill="#FFFFFF" font-family="Consolas" font-size="20" lengthAdjust="spacingAndGlyphs" textLength="130" x="177.5" y="97.3359">Happen Once</text><rect fill="#337788" height="43.5547" rx="12.5" ry="12.5" style="stroke: #FFFFFF; stroke-width: 1.5;" width="191" x="338" y="68"/><text fill="#FFFFFF" font-family="Consolas" font-size="20" lengthAdjust="spacingAndGlyphs" textLength="171" x="348" y="97.3359">Loop on Elements</text><path d="M76.5,28.1513 C76.5,36.9065 76.5,50.5375 76.5,62.6805 " fill="none" style="stroke: #FFFFFF; stroke-width: 1.0;"/><polygon fill="#FFFFFF" points="76.5,67.775,80.5,58.775,76.5,62.775,72.5,58.775,76.5,67.775" style="stroke: #FFFFFF; stroke-width: 1.0;"/><path d="M147.18,90 C152.206,90 157.233,90 162.26,90 " fill="none" style="stroke: #FFFFFF; stroke-width: 1.0;"/><polygon fill="#FFFFFF" points="167.286,90,158.286,86,162.286,90,158.286,94,167.286,90" style="stroke: #FFFFFF; stroke-width: 1.0;"/><path d="M317.855,90 C322.721,90 327.587,90 332.452,90 " fill="none" style="stroke: #FFFFFF; stroke-width: 1.0;"/><polygon fill="#FFFFFF" points="337.732,90,328.732,86,332.732,90,328.732,94,337.732,90" style="stroke: #FFFFFF; stroke-width: 1.0;"/></g></svg>